<svg width="30" height="30" viewBox="0 0 30 30" fill="none" xmlns="http://www.w3.org/2000/svg">
<path d="M28.8 0H1.2C0.53625 0 0 0.53625 0 1.2V28.8C0 29.4638 0.53625 30 1.2 30H28.8C29.4638 30 30 29.4638 30 28.8V1.2C30 0.53625 29.4638 0 28.8 0ZM18.2438 8.95875H23.4338V10.2225H18.2438V8.95875ZM15 19.38C14.7572 19.8408 14.4106 20.2388 13.9875 20.5425C13.545 20.85 13.0538 21.075 12.5325 21.2063C11.9872 21.3524 11.4246 21.4243 10.86 21.42H4.65V8.62875H10.6875C11.2988 8.62875 11.8538 8.685 12.36 8.79C12.8625 8.895 13.29 9.075 13.65 9.31875C14.0063 9.5625 14.2875 9.88875 14.4862 10.2938C14.6813 10.695 14.7825 11.1975 14.7825 11.7938C14.7825 12.4388 14.6363 12.9713 14.3438 13.4025C14.0475 13.8338 13.62 14.1825 13.0388 14.4563C13.83 14.6813 14.4113 15.0825 14.7938 15.645C15.1838 16.215 15.375 16.8975 15.375 17.7C15.375 18.3525 15.2513 18.9113 15 19.38ZM25.455 17.4H18.765C18.765 18.1275 19.0163 18.825 19.395 19.2C19.7775 19.5713 20.325 19.7588 21.0413 19.7588C21.5588 19.7588 21.9975 19.6275 22.3725 19.3688C22.7437 19.11 22.9688 18.8363 23.0513 18.5513H25.2938C24.9338 19.665 24.3863 20.46 23.6438 20.94C22.9088 21.42 22.0088 21.66 20.9625 21.66C20.2313 21.66 19.575 21.54 18.9862 21.3113C18.42 21.09 17.91 20.7525 17.49 20.3175C17.0759 19.8708 16.7558 19.3454 16.5487 18.7725C16.32 18.1388 16.2075 17.4713 16.215 16.8C16.215 16.1063 16.3313 15.4613 16.5563 14.8612C16.9875 13.695 17.8838 12.7613 19.0275 12.2775C19.6388 12.0225 20.295 11.895 20.9588 11.9025C21.7463 11.9025 22.4288 12.0525 23.0213 12.36C23.5917 12.6536 24.0869 13.0745 24.4688 13.59C24.8475 14.1038 25.1138 14.6888 25.2825 15.3488C25.4438 15.9975 25.5 16.68 25.455 17.4ZM20.88 13.815C20.475 13.815 20.1338 13.8863 19.8713 14.025C19.6088 14.1638 19.3913 14.3363 19.2263 14.535C19.0691 14.7269 18.953 14.949 18.885 15.1875C18.825 15.3863 18.7838 15.5888 18.7688 15.795H22.9125C22.8525 15.1463 22.6275 14.6663 22.3275 14.3288C22.0125 13.995 21.5063 13.815 20.88 13.815ZM11.5612 13.4362C11.8875 13.2 12.045 12.81 12.045 12.2738C12.0563 12.0188 12.0038 11.7675 11.8913 11.5388C11.79 11.355 11.64 11.2013 11.4563 11.0925C11.2657 10.977 11.0541 10.9005 10.8337 10.8675C10.5938 10.8225 10.35 10.8 10.11 10.8038H7.47375V13.7925H10.3275C10.8188 13.7963 11.235 13.6763 11.5612 13.4362ZM12.0038 16.1362C11.6363 15.855 11.145 15.7162 10.5338 15.7162H7.46625V19.2412H10.4738C10.755 19.2412 11.0138 19.215 11.265 19.1625C11.5163 19.11 11.7413 19.02 11.9325 18.8925C12.1238 18.7688 12.2775 18.6 12.3938 18.3825C12.5063 18.165 12.5625 17.8875 12.5625 17.5537C12.5625 16.89 12.375 16.4212 12.0038 16.1362Z" fill="#009ED0"/>
</svg>
